FFmpeg version SVN-r25716, Copyright (c) 2000-2010 the FFmpeg developers  built on Nov 10 2010 12:23:18 with gcc 4.1.2 20080704 (Red Hat 4.1.2-48)  configuration: --enable-libmp3lame --enable-shared --disable-mmx --arch=x86_64  libavutil     50.33. 0 / 50.33. 0  libavcore      0.12. 1 /  0.12. 1  libavcodec    52.94. 4 / 52.94. 4  libavformat   52.84. 0 / 52.84. 0  libavdevice   52. 2. 2 / 52. 2. 2  libavfilter    1.59. 0 /  1.59. 0  libswscale     0.12. 0 /  0.12. 0Seems stream 0 codec frame rate differs from container frame rate: 180000.00 (180000/1) -> 29.97 (30000/1001)Input #0, mov,mp4,m4a,3gp,3g2,mj2, from '/RAID10/data/converted_video_files/7660.mov':  Metadata:    major_brand     : qt      minor_version   : 537199360    compatible_brands: qt    Duration: 00:01:06.69, start: 0.000000, bitrate: 766 kb/s    Stream #0.0(eng): Video: h264, yuv420p, 426x500, 762 kb/s, 29.97 fps, 29.97 tbr, 90k tbn, 180k tbc[buffer @ 0x15cf4af0] w:426 h:500 pixfmt:yuv420pOutput #0, flv, to '/RAID10/data/converted_video_files/7660.flv':  Metadata:    encoder         : Lavf52.84.0    Stream #0.0(eng): Video: flv, yuv420p, 426x500, q=2-31, 600 kb/s, 1k tbn, 24 tbcStream mapping:  Stream #0.0 -> #0.0Press [q] to stop encodingframe=   54 fps=  0 q=13.9 size=     382kB time=2.25 bitrate=1389.8kbits/s dup=0 drop=13    frame=  113 fps=111 q=10.1 size=     575kB time=4.71 bitrate=1000.8kbits/s dup=0 drop=28    frame=  176 fps=115 q=11.6 size=     765kB time=7.33 bitrate= 855.1kbits/s dup=0 drop=43    frame=  240 fps=118 q=14.6 size=     968kB time=10.00 bitrate= 792.6kbits/s dup=0 drop=59    frame=  303 fps=120 q=12.2 size=    1168kB time=12.62 bitrate= 757.7kbits/s dup=0 drop=75    frame=  366 fps=120 q=12.4 size=    1354kB time=15.25 bitrate= 727.5kbits/s dup=0 drop=91    frame=  427 fps=121 q=11.5 size=    1542kB time=17.79 bitrate= 710.1kbits/s dup=0 drop=106    frame=  484 fps=120 q=19.2 size=    1735kB time=20.17 bitrate= 704.6kbits/s dup=0 drop=120    frame=  531 fps=117 q=15.5 size=    1876kB time=22.12 bitrate= 694.6kbits/s dup=0 drop=132    frame=  579 fps=115 q=16.7 size=    2017kB time=24.12 bitrate= 684.9kbits/s dup=0 drop=144    frame=  629 fps=113 q=14.6 size=    2160kB time=26.21 bitrate= 675.0kbits/s dup=0 drop=156    frame=  693 fps=114 q=9.5 size=    2321kB time=28.88 bitrate= 658.6kbits/s dup=0 drop=172    frame=  776 fps=118 q=9.4 size=    2538kB time=32.33 bitrate= 643.1kbits/s dup=0 drop=193    frame=  856 fps=121 q=6.4 size=    2771kB time=35.67 bitrate= 636.5kbits/s dup=0 drop=212    frame=  946 fps=125 q=5.4 size=    3000kB time=39.42 bitrate= 623.6kbits/s dup=0 drop=235    frame= 1038 fps=129 q=2.0 size=    3280kB time=43.25 bitrate= 621.3kbits/s dup=0 drop=258    frame= 1158 fps=135 q=2.0 size=    3637kB time=48.25 bitrate= 617.5kbits/s dup=0 drop=288    frame= 1245 fps=137 q=4.8 size=    3935kB time=51.88 bitrate= 621.3kbits/s dup=0 drop=309    frame= 1335 fps=139 q=4.6 size=    4222kB time=55.62 bitrate= 621.8kbits/s dup=0 drop=332    frame= 1424 fps=141 q=6.0 size=    4501kB time=59.33 bitrate= 621.4kbits/s dup=0 drop=354    frame= 1529 fps=145 q=2.0 size=    4833kB time=63.71 bitrate= 621.4kbits/s dup=0 drop=380    frame= 1601 fps=147 q=2.0 Lsize=    5047kB time=66.71 bitrate= 619.9kbits/s dup=0 drop=398    video:5022kB audio:0kB global headers:0kB muxing overhead 0.502178%